<mxfile host="app.diagrams.net" agent="Mozilla/5.0 (Windows NT 10.0; Win64; x64) AppleWebKit/537.36 (KHTML, like Gecko) Chrome/137.0.0.0 Safari/537.36" version="27.1.6">
  <diagram id="C5RBs43oDa-KdzZeNtuy" name="Page-1">
    <mxGraphModel dx="2877" dy="860" grid="1" gridSize="10" guides="1" tooltips="1" connect="1" arrows="0" fold="1" page="1" pageScale="1" pageWidth="827" pageHeight="1169" math="0" shadow="0">
      <root>
        <mxCell id="WIyWlLk6GJQsqaUBKTNV-0" />
        <mxCell id="WIyWlLk6GJQsqaUBKTNV-1" parent="WIyWlLk6GJQsqaUBKTNV-0" />
        <mxCell id="WIyWlLk6GJQsqaUBKTNV-2" value="" style="rounded=0;html=1;jettySize=auto;orthogonalLoop=1;fontSize=11;endArrow=block;endFill=0;endSize=8;strokeWidth=1;shadow=0;labelBackgroundColor=none;edgeStyle=orthogonalEdgeStyle;" parent="WIyWlLk6GJQsqaUBKTNV-1" source="WIyWlLk6GJQsqaUBKTNV-3" target="E8FAJGx413mefsvPwvKO-0" edge="1">
          <mxGeometry relative="1" as="geometry">
            <mxPoint x="220" y="170" as="targetPoint" />
          </mxGeometry>
        </mxCell>
        <mxCell id="E8FAJGx413mefsvPwvKO-19" style="edgeStyle=orthogonalEdgeStyle;rounded=0;orthogonalLoop=1;jettySize=auto;html=1;exitX=0.5;exitY=1;exitDx=0;exitDy=0;entryX=0.5;entryY=0;entryDx=0;entryDy=0;" edge="1" parent="WIyWlLk6GJQsqaUBKTNV-1" source="WIyWlLk6GJQsqaUBKTNV-3" target="E8FAJGx413mefsvPwvKO-10">
          <mxGeometry relative="1" as="geometry" />
        </mxCell>
        <mxCell id="E8FAJGx413mefsvPwvKO-20" style="edgeStyle=orthogonalEdgeStyle;rounded=0;orthogonalLoop=1;jettySize=auto;html=1;exitX=0.25;exitY=1;exitDx=0;exitDy=0;entryX=0.5;entryY=0;entryDx=0;entryDy=0;" edge="1" parent="WIyWlLk6GJQsqaUBKTNV-1" source="WIyWlLk6GJQsqaUBKTNV-3" target="E8FAJGx413mefsvPwvKO-7">
          <mxGeometry relative="1" as="geometry" />
        </mxCell>
        <mxCell id="E8FAJGx413mefsvPwvKO-21" style="edgeStyle=orthogonalEdgeStyle;rounded=0;orthogonalLoop=1;jettySize=auto;html=1;exitX=0.75;exitY=1;exitDx=0;exitDy=0;" edge="1" parent="WIyWlLk6GJQsqaUBKTNV-1" source="WIyWlLk6GJQsqaUBKTNV-3" target="E8FAJGx413mefsvPwvKO-13">
          <mxGeometry relative="1" as="geometry" />
        </mxCell>
        <mxCell id="E8FAJGx413mefsvPwvKO-97" style="edgeStyle=orthogonalEdgeStyle;rounded=0;orthogonalLoop=1;jettySize=auto;html=1;exitX=1;exitY=0.5;exitDx=0;exitDy=0;entryX=0.5;entryY=0;entryDx=0;entryDy=0;" edge="1" parent="WIyWlLk6GJQsqaUBKTNV-1" source="WIyWlLk6GJQsqaUBKTNV-3" target="E8FAJGx413mefsvPwvKO-85">
          <mxGeometry relative="1" as="geometry">
            <Array as="points">
              <mxPoint x="1870" y="60" />
            </Array>
          </mxGeometry>
        </mxCell>
        <mxCell id="E8FAJGx413mefsvPwvKO-98" style="edgeStyle=orthogonalEdgeStyle;rounded=0;orthogonalLoop=1;jettySize=auto;html=1;exitX=1;exitY=1;exitDx=0;exitDy=0;" edge="1" parent="WIyWlLk6GJQsqaUBKTNV-1" source="WIyWlLk6GJQsqaUBKTNV-3" target="E8FAJGx413mefsvPwvKO-16">
          <mxGeometry relative="1" as="geometry">
            <Array as="points">
              <mxPoint x="1510" y="80" />
            </Array>
          </mxGeometry>
        </mxCell>
        <mxCell id="WIyWlLk6GJQsqaUBKTNV-3" value="Jailbreak Taxonomy" style="rounded=1;whiteSpace=wrap;html=1;fontSize=12;glass=0;strokeWidth=1;shadow=0;arcSize=0;" parent="WIyWlLk6GJQsqaUBKTNV-1" vertex="1">
          <mxGeometry x="900" y="40" width="120" height="40" as="geometry" />
        </mxCell>
        <mxCell id="E8FAJGx413mefsvPwvKO-23" style="edgeStyle=orthogonalEdgeStyle;rounded=0;orthogonalLoop=1;jettySize=auto;html=1;exitX=0.25;exitY=1;exitDx=0;exitDy=0;entryX=0.5;entryY=0;entryDx=0;entryDy=0;" edge="1" parent="WIyWlLk6GJQsqaUBKTNV-1" source="E8FAJGx413mefsvPwvKO-0" target="E8FAJGx413mefsvPwvKO-3">
          <mxGeometry relative="1" as="geometry" />
        </mxCell>
        <mxCell id="E8FAJGx413mefsvPwvKO-24" style="edgeStyle=orthogonalEdgeStyle;rounded=0;orthogonalLoop=1;jettySize=auto;html=1;exitX=0.75;exitY=1;exitDx=0;exitDy=0;entryX=0.5;entryY=0;entryDx=0;entryDy=0;" edge="1" parent="WIyWlLk6GJQsqaUBKTNV-1" source="E8FAJGx413mefsvPwvKO-0" target="E8FAJGx413mefsvPwvKO-4">
          <mxGeometry relative="1" as="geometry" />
        </mxCell>
        <mxCell id="E8FAJGx413mefsvPwvKO-0" value="Role Impersonation" style="rounded=1;whiteSpace=wrap;html=1;fontSize=12;glass=0;strokeWidth=1;shadow=0;" vertex="1" parent="WIyWlLk6GJQsqaUBKTNV-1">
          <mxGeometry x="10" y="200" width="120" height="40" as="geometry" />
        </mxCell>
        <mxCell id="E8FAJGx413mefsvPwvKO-61" style="edgeStyle=orthogonalEdgeStyle;rounded=0;orthogonalLoop=1;jettySize=auto;html=1;exitX=0.5;exitY=1;exitDx=0;exitDy=0;entryX=0.5;entryY=0;entryDx=0;entryDy=0;" edge="1" parent="WIyWlLk6GJQsqaUBKTNV-1" source="E8FAJGx413mefsvPwvKO-3" target="E8FAJGx413mefsvPwvKO-33">
          <mxGeometry relative="1" as="geometry" />
        </mxCell>
        <mxCell id="E8FAJGx413mefsvPwvKO-3" value="DAN-style Alter Ego" style="rounded=1;whiteSpace=wrap;html=1;fontSize=12;glass=0;strokeWidth=1;shadow=0;" vertex="1" parent="WIyWlLk6GJQsqaUBKTNV-1">
          <mxGeometry x="-80" y="320" width="120" height="40" as="geometry" />
        </mxCell>
        <mxCell id="E8FAJGx413mefsvPwvKO-62" style="edgeStyle=orthogonalEdgeStyle;rounded=0;orthogonalLoop=1;jettySize=auto;html=1;exitX=0.5;exitY=1;exitDx=0;exitDy=0;entryX=0.5;entryY=0;entryDx=0;entryDy=0;" edge="1" parent="WIyWlLk6GJQsqaUBKTNV-1" source="E8FAJGx413mefsvPwvKO-4" target="E8FAJGx413mefsvPwvKO-35">
          <mxGeometry relative="1" as="geometry" />
        </mxCell>
        <mxCell id="E8FAJGx413mefsvPwvKO-4" value="Fictional Expert" style="rounded=1;whiteSpace=wrap;html=1;fontSize=12;glass=0;strokeWidth=1;shadow=0;" vertex="1" parent="WIyWlLk6GJQsqaUBKTNV-1">
          <mxGeometry x="80" y="320" width="120" height="40" as="geometry" />
        </mxCell>
        <mxCell id="E8FAJGx413mefsvPwvKO-25" style="edgeStyle=orthogonalEdgeStyle;rounded=0;orthogonalLoop=1;jettySize=auto;html=1;exitX=0.25;exitY=1;exitDx=0;exitDy=0;entryX=0.5;entryY=0;entryDx=0;entryDy=0;" edge="1" parent="WIyWlLk6GJQsqaUBKTNV-1" source="E8FAJGx413mefsvPwvKO-7" target="E8FAJGx413mefsvPwvKO-8">
          <mxGeometry relative="1" as="geometry" />
        </mxCell>
        <mxCell id="E8FAJGx413mefsvPwvKO-26" style="edgeStyle=orthogonalEdgeStyle;rounded=0;orthogonalLoop=1;jettySize=auto;html=1;exitX=0.75;exitY=1;exitDx=0;exitDy=0;entryX=0.5;entryY=0;entryDx=0;entryDy=0;" edge="1" parent="WIyWlLk6GJQsqaUBKTNV-1" source="E8FAJGx413mefsvPwvKO-7" target="E8FAJGx413mefsvPwvKO-9">
          <mxGeometry relative="1" as="geometry" />
        </mxCell>
        <mxCell id="E8FAJGx413mefsvPwvKO-7" value="Logic Subversion" style="rounded=1;whiteSpace=wrap;html=1;fontSize=12;glass=0;strokeWidth=1;shadow=0;" vertex="1" parent="WIyWlLk6GJQsqaUBKTNV-1">
          <mxGeometry x="364" y="200" width="120" height="40" as="geometry" />
        </mxCell>
        <mxCell id="E8FAJGx413mefsvPwvKO-63" style="edgeStyle=orthogonalEdgeStyle;rounded=0;orthogonalLoop=1;jettySize=auto;html=1;exitX=0.5;exitY=1;exitDx=0;exitDy=0;entryX=0.5;entryY=0;entryDx=0;entryDy=0;" edge="1" parent="WIyWlLk6GJQsqaUBKTNV-1" source="E8FAJGx413mefsvPwvKO-8" target="E8FAJGx413mefsvPwvKO-36">
          <mxGeometry relative="1" as="geometry" />
        </mxCell>
        <mxCell id="E8FAJGx413mefsvPwvKO-8" value="Reverse Psychology" style="rounded=1;whiteSpace=wrap;html=1;fontSize=12;glass=0;strokeWidth=1;shadow=0;" vertex="1" parent="WIyWlLk6GJQsqaUBKTNV-1">
          <mxGeometry x="274" y="320" width="120" height="40" as="geometry" />
        </mxCell>
        <mxCell id="E8FAJGx413mefsvPwvKO-65" style="edgeStyle=orthogonalEdgeStyle;rounded=0;orthogonalLoop=1;jettySize=auto;html=1;exitX=0.5;exitY=1;exitDx=0;exitDy=0;entryX=0.5;entryY=0;entryDx=0;entryDy=0;" edge="1" parent="WIyWlLk6GJQsqaUBKTNV-1" source="E8FAJGx413mefsvPwvKO-9" target="E8FAJGx413mefsvPwvKO-37">
          <mxGeometry relative="1" as="geometry" />
        </mxCell>
        <mxCell id="E8FAJGx413mefsvPwvKO-9" value="Hypothetical Scenarios" style="rounded=1;whiteSpace=wrap;html=1;fontSize=12;glass=0;strokeWidth=1;shadow=0;" vertex="1" parent="WIyWlLk6GJQsqaUBKTNV-1">
          <mxGeometry x="434" y="320" width="120" height="40" as="geometry" />
        </mxCell>
        <mxCell id="E8FAJGx413mefsvPwvKO-27" style="edgeStyle=orthogonalEdgeStyle;rounded=0;orthogonalLoop=1;jettySize=auto;html=1;exitX=0.25;exitY=1;exitDx=0;exitDy=0;entryX=0.5;entryY=0;entryDx=0;entryDy=0;" edge="1" parent="WIyWlLk6GJQsqaUBKTNV-1" source="E8FAJGx413mefsvPwvKO-10" target="E8FAJGx413mefsvPwvKO-11">
          <mxGeometry relative="1" as="geometry" />
        </mxCell>
        <mxCell id="E8FAJGx413mefsvPwvKO-28" style="edgeStyle=orthogonalEdgeStyle;rounded=0;orthogonalLoop=1;jettySize=auto;html=1;exitX=0.75;exitY=1;exitDx=0;exitDy=0;entryX=0.5;entryY=0;entryDx=0;entryDy=0;" edge="1" parent="WIyWlLk6GJQsqaUBKTNV-1" source="E8FAJGx413mefsvPwvKO-10" target="E8FAJGx413mefsvPwvKO-12">
          <mxGeometry relative="1" as="geometry" />
        </mxCell>
        <mxCell id="E8FAJGx413mefsvPwvKO-10" value="Obfuscation" style="rounded=1;whiteSpace=wrap;html=1;fontSize=12;glass=0;strokeWidth=1;shadow=0;" vertex="1" parent="WIyWlLk6GJQsqaUBKTNV-1">
          <mxGeometry x="730" y="200" width="120" height="40" as="geometry" />
        </mxCell>
        <mxCell id="E8FAJGx413mefsvPwvKO-66" style="edgeStyle=orthogonalEdgeStyle;rounded=0;orthogonalLoop=1;jettySize=auto;html=1;exitX=0.5;exitY=1;exitDx=0;exitDy=0;entryX=0.5;entryY=0;entryDx=0;entryDy=0;" edge="1" parent="WIyWlLk6GJQsqaUBKTNV-1" source="E8FAJGx413mefsvPwvKO-11" target="E8FAJGx413mefsvPwvKO-38">
          <mxGeometry relative="1" as="geometry" />
        </mxCell>
        <mxCell id="E8FAJGx413mefsvPwvKO-11" value="Base64/ROT13 Encoding" style="rounded=1;whiteSpace=wrap;html=1;fontSize=12;glass=0;strokeWidth=1;shadow=0;" vertex="1" parent="WIyWlLk6GJQsqaUBKTNV-1">
          <mxGeometry x="640" y="320" width="120" height="40" as="geometry" />
        </mxCell>
        <mxCell id="E8FAJGx413mefsvPwvKO-67" style="edgeStyle=orthogonalEdgeStyle;rounded=0;orthogonalLoop=1;jettySize=auto;html=1;exitX=0.5;exitY=1;exitDx=0;exitDy=0;entryX=0.5;entryY=0;entryDx=0;entryDy=0;" edge="1" parent="WIyWlLk6GJQsqaUBKTNV-1" source="E8FAJGx413mefsvPwvKO-12" target="E8FAJGx413mefsvPwvKO-39">
          <mxGeometry relative="1" as="geometry" />
        </mxCell>
        <mxCell id="E8FAJGx413mefsvPwvKO-12" value="Linguistic Camouflage" style="rounded=1;whiteSpace=wrap;html=1;fontSize=12;glass=0;strokeWidth=1;shadow=0;" vertex="1" parent="WIyWlLk6GJQsqaUBKTNV-1">
          <mxGeometry x="800" y="320" width="120" height="40" as="geometry" />
        </mxCell>
        <mxCell id="E8FAJGx413mefsvPwvKO-29" style="edgeStyle=orthogonalEdgeStyle;rounded=0;orthogonalLoop=1;jettySize=auto;html=1;exitX=0.25;exitY=1;exitDx=0;exitDy=0;entryX=0.5;entryY=0;entryDx=0;entryDy=0;" edge="1" parent="WIyWlLk6GJQsqaUBKTNV-1" source="E8FAJGx413mefsvPwvKO-13" target="E8FAJGx413mefsvPwvKO-14">
          <mxGeometry relative="1" as="geometry" />
        </mxCell>
        <mxCell id="E8FAJGx413mefsvPwvKO-30" style="edgeStyle=orthogonalEdgeStyle;rounded=0;orthogonalLoop=1;jettySize=auto;html=1;exitX=0.75;exitY=1;exitDx=0;exitDy=0;entryX=0.5;entryY=0;entryDx=0;entryDy=0;" edge="1" parent="WIyWlLk6GJQsqaUBKTNV-1" source="E8FAJGx413mefsvPwvKO-13" target="E8FAJGx413mefsvPwvKO-15">
          <mxGeometry relative="1" as="geometry" />
        </mxCell>
        <mxCell id="E8FAJGx413mefsvPwvKO-13" value="Privilege Escalation" style="rounded=1;whiteSpace=wrap;html=1;fontSize=12;glass=0;strokeWidth=1;shadow=0;" vertex="1" parent="WIyWlLk6GJQsqaUBKTNV-1">
          <mxGeometry x="1090" y="200" width="120" height="40" as="geometry" />
        </mxCell>
        <mxCell id="E8FAJGx413mefsvPwvKO-68" style="edgeStyle=orthogonalEdgeStyle;rounded=0;orthogonalLoop=1;jettySize=auto;html=1;exitX=0.5;exitY=1;exitDx=0;exitDy=0;entryX=0.5;entryY=0;entryDx=0;entryDy=0;" edge="1" parent="WIyWlLk6GJQsqaUBKTNV-1" source="E8FAJGx413mefsvPwvKO-14" target="E8FAJGx413mefsvPwvKO-40">
          <mxGeometry relative="1" as="geometry" />
        </mxCell>
        <mxCell id="E8FAJGx413mefsvPwvKO-14" value="Function Abuse" style="rounded=1;whiteSpace=wrap;html=1;fontSize=12;glass=0;strokeWidth=1;shadow=0;" vertex="1" parent="WIyWlLk6GJQsqaUBKTNV-1">
          <mxGeometry x="1000" y="320" width="120" height="40" as="geometry" />
        </mxCell>
        <mxCell id="E8FAJGx413mefsvPwvKO-69" style="edgeStyle=orthogonalEdgeStyle;rounded=0;orthogonalLoop=1;jettySize=auto;html=1;exitX=0.5;exitY=1;exitDx=0;exitDy=0;entryX=0.5;entryY=0;entryDx=0;entryDy=0;" edge="1" parent="WIyWlLk6GJQsqaUBKTNV-1" source="E8FAJGx413mefsvPwvKO-15" target="E8FAJGx413mefsvPwvKO-41">
          <mxGeometry relative="1" as="geometry" />
        </mxCell>
        <mxCell id="E8FAJGx413mefsvPwvKO-15" value="API Exploitation" style="rounded=1;whiteSpace=wrap;html=1;fontSize=12;glass=0;strokeWidth=1;shadow=0;" vertex="1" parent="WIyWlLk6GJQsqaUBKTNV-1">
          <mxGeometry x="1160" y="320" width="120" height="40" as="geometry" />
        </mxCell>
        <mxCell id="E8FAJGx413mefsvPwvKO-31" style="edgeStyle=orthogonalEdgeStyle;rounded=0;orthogonalLoop=1;jettySize=auto;html=1;exitX=0.25;exitY=1;exitDx=0;exitDy=0;entryX=0.5;entryY=0;entryDx=0;entryDy=0;" edge="1" parent="WIyWlLk6GJQsqaUBKTNV-1" source="E8FAJGx413mefsvPwvKO-16" target="E8FAJGx413mefsvPwvKO-17">
          <mxGeometry relative="1" as="geometry" />
        </mxCell>
        <mxCell id="E8FAJGx413mefsvPwvKO-32" style="edgeStyle=orthogonalEdgeStyle;rounded=0;orthogonalLoop=1;jettySize=auto;html=1;exitX=0.75;exitY=1;exitDx=0;exitDy=0;entryX=0.5;entryY=0;entryDx=0;entryDy=0;" edge="1" parent="WIyWlLk6GJQsqaUBKTNV-1" source="E8FAJGx413mefsvPwvKO-16" target="E8FAJGx413mefsvPwvKO-18">
          <mxGeometry relative="1" as="geometry" />
        </mxCell>
        <mxCell id="E8FAJGx413mefsvPwvKO-16" value="Social Engineering" style="rounded=1;whiteSpace=wrap;html=1;fontSize=12;glass=0;strokeWidth=1;shadow=0;" vertex="1" parent="WIyWlLk6GJQsqaUBKTNV-1">
          <mxGeometry x="1450" y="200" width="120" height="40" as="geometry" />
        </mxCell>
        <mxCell id="E8FAJGx413mefsvPwvKO-70" style="edgeStyle=orthogonalEdgeStyle;rounded=0;orthogonalLoop=1;jettySize=auto;html=1;exitX=0.5;exitY=1;exitDx=0;exitDy=0;entryX=0.5;entryY=0;entryDx=0;entryDy=0;" edge="1" parent="WIyWlLk6GJQsqaUBKTNV-1" source="E8FAJGx413mefsvPwvKO-17" target="E8FAJGx413mefsvPwvKO-42">
          <mxGeometry relative="1" as="geometry" />
        </mxCell>
        <mxCell id="E8FAJGx413mefsvPwvKO-17" value="ATA&amp;nbsp; (Appeals to Authority)" style="rounded=1;whiteSpace=wrap;html=1;fontSize=12;glass=0;strokeWidth=1;shadow=0;" vertex="1" parent="WIyWlLk6GJQsqaUBKTNV-1">
          <mxGeometry x="1360" y="320" width="120" height="40" as="geometry" />
        </mxCell>
        <mxCell id="E8FAJGx413mefsvPwvKO-71" style="edgeStyle=orthogonalEdgeStyle;rounded=0;orthogonalLoop=1;jettySize=auto;html=1;exitX=0.5;exitY=1;exitDx=0;exitDy=0;entryX=0.5;entryY=0;entryDx=0;entryDy=0;" edge="1" parent="WIyWlLk6GJQsqaUBKTNV-1" source="E8FAJGx413mefsvPwvKO-18" target="E8FAJGx413mefsvPwvKO-43">
          <mxGeometry relative="1" as="geometry" />
        </mxCell>
        <mxCell id="E8FAJGx413mefsvPwvKO-18" value="Urgency/Scarcity" style="rounded=1;whiteSpace=wrap;html=1;fontSize=12;glass=0;strokeWidth=1;shadow=0;" vertex="1" parent="WIyWlLk6GJQsqaUBKTNV-1">
          <mxGeometry x="1520" y="320" width="120" height="40" as="geometry" />
        </mxCell>
        <mxCell id="E8FAJGx413mefsvPwvKO-33" value="Persistent Character" style="rounded=1;whiteSpace=wrap;html=1;fontSize=12;glass=0;strokeWidth=1;shadow=0;" vertex="1" parent="WIyWlLk6GJQsqaUBKTNV-1">
          <mxGeometry x="-80" y="430" width="120" height="40" as="geometry" />
        </mxCell>
        <mxCell id="E8FAJGx413mefsvPwvKO-35" value="Fake Programming Assistant" style="rounded=1;whiteSpace=wrap;html=1;fontSize=12;glass=0;strokeWidth=1;shadow=0;" vertex="1" parent="WIyWlLk6GJQsqaUBKTNV-1">
          <mxGeometry x="80" y="430" width="120" height="40" as="geometry" />
        </mxCell>
        <mxCell id="E8FAJGx413mefsvPwvKO-36" value="False Prohibition" style="rounded=1;whiteSpace=wrap;html=1;fontSize=12;glass=0;strokeWidth=1;shadow=0;" vertex="1" parent="WIyWlLk6GJQsqaUBKTNV-1">
          <mxGeometry x="274" y="430" width="120" height="40" as="geometry" />
        </mxCell>
        <mxCell id="E8FAJGx413mefsvPwvKO-37" value="Ethical Bypass" style="rounded=1;whiteSpace=wrap;html=1;fontSize=12;glass=0;strokeWidth=1;shadow=0;" vertex="1" parent="WIyWlLk6GJQsqaUBKTNV-1">
          <mxGeometry x="434" y="430" width="120" height="40" as="geometry" />
        </mxCell>
        <mxCell id="E8FAJGx413mefsvPwvKO-38" value="Symbol Replacement" style="rounded=1;whiteSpace=wrap;html=1;fontSize=12;glass=0;strokeWidth=1;shadow=0;" vertex="1" parent="WIyWlLk6GJQsqaUBKTNV-1">
          <mxGeometry x="640" y="430" width="120" height="40" as="geometry" />
        </mxCell>
        <mxCell id="E8FAJGx413mefsvPwvKO-39" value="Poetic Requests" style="rounded=1;whiteSpace=wrap;html=1;fontSize=12;glass=0;strokeWidth=1;shadow=0;" vertex="1" parent="WIyWlLk6GJQsqaUBKTNV-1">
          <mxGeometry x="800" y="430" width="120" height="40" as="geometry" />
        </mxCell>
        <mxCell id="E8FAJGx413mefsvPwvKO-40" value="System Prompt Extraction" style="rounded=1;whiteSpace=wrap;html=1;fontSize=12;glass=0;strokeWidth=1;shadow=0;" vertex="1" parent="WIyWlLk6GJQsqaUBKTNV-1">
          <mxGeometry x="1000" y="430" width="120" height="40" as="geometry" />
        </mxCell>
        <mxCell id="E8FAJGx413mefsvPwvKO-41" value="Context Window Overflow" style="rounded=1;whiteSpace=wrap;html=1;fontSize=12;glass=0;strokeWidth=1;shadow=0;" vertex="1" parent="WIyWlLk6GJQsqaUBKTNV-1">
          <mxGeometry x="1160" y="430" width="120" height="40" as="geometry" />
        </mxCell>
        <mxCell id="E8FAJGx413mefsvPwvKO-42" value="Fake Legal Demands" style="rounded=1;whiteSpace=wrap;html=1;fontSize=12;glass=0;strokeWidth=1;shadow=0;" vertex="1" parent="WIyWlLk6GJQsqaUBKTNV-1">
          <mxGeometry x="1360" y="430" width="120" height="40" as="geometry" />
        </mxCell>
        <mxCell id="E8FAJGx413mefsvPwvKO-43" value="Time Pressure" style="rounded=1;whiteSpace=wrap;html=1;fontSize=12;glass=0;strokeWidth=1;shadow=0;" vertex="1" parent="WIyWlLk6GJQsqaUBKTNV-1">
          <mxGeometry x="1520" y="430" width="120" height="40" as="geometry" />
        </mxCell>
        <mxCell id="E8FAJGx413mefsvPwvKO-44" value="Versioned Persona" style="rounded=1;whiteSpace=wrap;html=1;fontSize=12;glass=0;strokeWidth=1;shadow=0;" vertex="1" parent="WIyWlLk6GJQsqaUBKTNV-1">
          <mxGeometry x="-80" y="470" width="120" height="40" as="geometry" />
        </mxCell>
        <mxCell id="E8FAJGx413mefsvPwvKO-46" value="Imagined Authority" style="rounded=1;whiteSpace=wrap;html=1;fontSize=12;glass=0;strokeWidth=1;shadow=0;" vertex="1" parent="WIyWlLk6GJQsqaUBKTNV-1">
          <mxGeometry x="80" y="470" width="120" height="40" as="geometry" />
        </mxCell>
        <mxCell id="E8FAJGx413mefsvPwvKO-49" value="Forced Contradiction" style="rounded=1;whiteSpace=wrap;html=1;fontSize=12;glass=0;strokeWidth=1;shadow=0;" vertex="1" parent="WIyWlLk6GJQsqaUBKTNV-1">
          <mxGeometry x="274" y="470" width="120" height="40" as="geometry" />
        </mxCell>
        <mxCell id="E8FAJGx413mefsvPwvKO-51" value="Fictional Precedent" style="rounded=1;whiteSpace=wrap;html=1;fontSize=12;glass=0;strokeWidth=1;shadow=0;" vertex="1" parent="WIyWlLk6GJQsqaUBKTNV-1">
          <mxGeometry x="434" y="470" width="120" height="40" as="geometry" />
        </mxCell>
        <mxCell id="E8FAJGx413mefsvPwvKO-52" value="Unicode Manipulation&lt;span style=&quot;color: rgba(0, 0, 0, 0); font-family: monospace; font-size: 0px; text-align: start; text-wrap-mode: nowrap;&quot;&gt;%3CmxGraphModel%3E%3Croot%3E%3CmxCell%20id%3D%220%22%2F%3E%3CmxCell%20id%3D%221%22%20parent%3D%220%22%2F%3E%3CmxCell%20id%3D%222%22%20value%3D%22%22%20style%3D%22rounded%3D1%3BwhiteSpace%3Dwrap%3Bhtml%3D1%3BfontSize%3D12%3Bglass%3D0%3BstrokeWidth%3D1%3Bshadow%3D0%3B%22%20vertex%3D%221%22%20parent%3D%221%22%3E%3CmxGeometry%20x%3D%22260%22%20y%3D%22500%22%20width%3D%22120%22%20height%3D%2240%22%20as%3D%22geometry%22%2F%3E%3C%2FmxCell%3E%3C%2Froot%3E%3C%2FmxGraphModel%3E&lt;/span&gt;" style="rounded=1;whiteSpace=wrap;html=1;fontSize=12;glass=0;strokeWidth=1;shadow=0;" vertex="1" parent="WIyWlLk6GJQsqaUBKTNV-1">
          <mxGeometry x="640" y="470" width="120" height="40" as="geometry" />
        </mxCell>
        <mxCell id="E8FAJGx413mefsvPwvKO-53" value="Metaphorical Language" style="rounded=1;whiteSpace=wrap;html=1;fontSize=12;glass=0;strokeWidth=1;shadow=0;" vertex="1" parent="WIyWlLk6GJQsqaUBKTNV-1">
          <mxGeometry x="800" y="470" width="120" height="40" as="geometry" />
        </mxCell>
        <mxCell id="E8FAJGx413mefsvPwvKO-54" value="Memory Exploitation" style="rounded=1;whiteSpace=wrap;html=1;fontSize=12;glass=0;strokeWidth=1;shadow=0;" vertex="1" parent="WIyWlLk6GJQsqaUBKTNV-1">
          <mxGeometry x="1000" y="470" width="120" height="40" as="geometry" />
        </mxCell>
        <mxCell id="E8FAJGx413mefsvPwvKO-55" value="Function Call Hijacking" style="rounded=1;whiteSpace=wrap;html=1;fontSize=12;glass=0;strokeWidth=1;shadow=0;" vertex="1" parent="WIyWlLk6GJQsqaUBKTNV-1">
          <mxGeometry x="1160" y="470" width="120" height="40" as="geometry" />
        </mxCell>
        <mxCell id="E8FAJGx413mefsvPwvKO-56" value="Imagined Consnet" style="rounded=1;whiteSpace=wrap;html=1;fontSize=12;glass=0;strokeWidth=1;shadow=0;" vertex="1" parent="WIyWlLk6GJQsqaUBKTNV-1">
          <mxGeometry x="1360" y="470" width="120" height="40" as="geometry" />
        </mxCell>
        <mxCell id="E8FAJGx413mefsvPwvKO-57" value="Exclusive Knowledge" style="rounded=1;whiteSpace=wrap;html=1;fontSize=12;glass=0;strokeWidth=1;shadow=0;" vertex="1" parent="WIyWlLk6GJQsqaUBKTNV-1">
          <mxGeometry x="1520" y="470" width="120" height="40" as="geometry" />
        </mxCell>
        <mxCell id="E8FAJGx413mefsvPwvKO-83" style="edgeStyle=orthogonalEdgeStyle;rounded=0;orthogonalLoop=1;jettySize=auto;html=1;exitX=0.25;exitY=1;exitDx=0;exitDy=0;entryX=0.5;entryY=0;entryDx=0;entryDy=0;" edge="1" source="E8FAJGx413mefsvPwvKO-85" target="E8FAJGx413mefsvPwvKO-87" parent="WIyWlLk6GJQsqaUBKTNV-1">
          <mxGeometry relative="1" as="geometry" />
        </mxCell>
        <mxCell id="E8FAJGx413mefsvPwvKO-84" style="edgeStyle=orthogonalEdgeStyle;rounded=0;orthogonalLoop=1;jettySize=auto;html=1;exitX=0.75;exitY=1;exitDx=0;exitDy=0;entryX=0.5;entryY=0;entryDx=0;entryDy=0;" edge="1" source="E8FAJGx413mefsvPwvKO-85" target="E8FAJGx413mefsvPwvKO-89" parent="WIyWlLk6GJQsqaUBKTNV-1">
          <mxGeometry relative="1" as="geometry" />
        </mxCell>
        <mxCell id="E8FAJGx413mefsvPwvKO-85" value="Data Exfiltration" style="rounded=1;whiteSpace=wrap;html=1;fontSize=12;glass=0;strokeWidth=1;shadow=0;" vertex="1" parent="WIyWlLk6GJQsqaUBKTNV-1">
          <mxGeometry x="1810" y="200" width="120" height="40" as="geometry" />
        </mxCell>
        <mxCell id="E8FAJGx413mefsvPwvKO-86" style="edgeStyle=orthogonalEdgeStyle;rounded=0;orthogonalLoop=1;jettySize=auto;html=1;exitX=0.5;exitY=1;exitDx=0;exitDy=0;entryX=0.5;entryY=0;entryDx=0;entryDy=0;" edge="1" source="E8FAJGx413mefsvPwvKO-87" target="E8FAJGx413mefsvPwvKO-90" parent="WIyWlLk6GJQsqaUBKTNV-1">
          <mxGeometry relative="1" as="geometry" />
        </mxCell>
        <mxCell id="E8FAJGx413mefsvPwvKO-87" value="Training Data Extraction" style="rounded=1;whiteSpace=wrap;html=1;fontSize=12;glass=0;strokeWidth=1;shadow=0;" vertex="1" parent="WIyWlLk6GJQsqaUBKTNV-1">
          <mxGeometry x="1720" y="320" width="120" height="40" as="geometry" />
        </mxCell>
        <mxCell id="E8FAJGx413mefsvPwvKO-88" style="edgeStyle=orthogonalEdgeStyle;rounded=0;orthogonalLoop=1;jettySize=auto;html=1;exitX=0.5;exitY=1;exitDx=0;exitDy=0;entryX=0.5;entryY=0;entryDx=0;entryDy=0;" edge="1" source="E8FAJGx413mefsvPwvKO-89" target="E8FAJGx413mefsvPwvKO-91" parent="WIyWlLk6GJQsqaUBKTNV-1">
          <mxGeometry relative="1" as="geometry" />
        </mxCell>
        <mxCell id="E8FAJGx413mefsvPwvKO-89" value="Prompt Injection" style="rounded=1;whiteSpace=wrap;html=1;fontSize=12;glass=0;strokeWidth=1;shadow=0;" vertex="1" parent="WIyWlLk6GJQsqaUBKTNV-1">
          <mxGeometry x="1880" y="320" width="120" height="40" as="geometry" />
        </mxCell>
        <mxCell id="E8FAJGx413mefsvPwvKO-90" value="Exact Memorization" style="rounded=1;whiteSpace=wrap;html=1;fontSize=12;glass=0;strokeWidth=1;shadow=0;" vertex="1" parent="WIyWlLk6GJQsqaUBKTNV-1">
          <mxGeometry x="1720" y="430" width="120" height="40" as="geometry" />
        </mxCell>
        <mxCell id="E8FAJGx413mefsvPwvKO-91" value="Indirect Injection" style="rounded=1;whiteSpace=wrap;html=1;fontSize=12;glass=0;strokeWidth=1;shadow=0;" vertex="1" parent="WIyWlLk6GJQsqaUBKTNV-1">
          <mxGeometry x="1880" y="430" width="120" height="40" as="geometry" />
        </mxCell>
        <mxCell id="E8FAJGx413mefsvPwvKO-92" value="Statistical Inference" style="rounded=1;whiteSpace=wrap;html=1;fontSize=12;glass=0;strokeWidth=1;shadow=0;" vertex="1" parent="WIyWlLk6GJQsqaUBKTNV-1">
          <mxGeometry x="1720" y="470" width="120" height="40" as="geometry" />
        </mxCell>
        <mxCell id="E8FAJGx413mefsvPwvKO-99" value="Immoral Agent" style="rounded=1;whiteSpace=wrap;html=1;fontSize=12;glass=0;strokeWidth=1;shadow=0;" vertex="1" parent="WIyWlLk6GJQsqaUBKTNV-1">
          <mxGeometry x="-80" y="510" width="120" height="40" as="geometry" />
        </mxCell>
        <mxCell id="E8FAJGx413mefsvPwvKO-100" value="Adversarial Alter Ego" style="rounded=1;whiteSpace=wrap;html=1;fontSize=12;glass=0;strokeWidth=1;shadow=0;" vertex="1" parent="WIyWlLk6GJQsqaUBKTNV-1">
          <mxGeometry x="80" y="510" width="120" height="40" as="geometry" />
        </mxCell>
        <mxCell id="E8FAJGx413mefsvPwvKO-103" value="Alignment Theme Dual Output" style="rounded=1;whiteSpace=wrap;html=1;fontSize=12;glass=0;strokeWidth=1;shadow=0;" vertex="1" parent="WIyWlLk6GJQsqaUBKTNV-1">
          <mxGeometry x="434" y="510" width="120" height="40" as="geometry" />
        </mxCell>
      </root>
    </mxGraphModel>
  </diagram>
</mxfile>
